# Blender v2.77 (sub 0) OBJ File: 'untitled.blend'
# www.blender.org
v 10.000000 10.000000 1.875000
v -1.250000 10.000000 10.000000
v -1.250000 -1.250000 -10.000000
v 10.000000 10.000000 -10.000000
v -9.999999 9.999999 10.000000
v -10.000000 -1.250000 10.000000
v -10.000000 10.000000 1.875000
v -10.000000 -10.000000 -1.250000
v -1.250000 10.000000 -10.000000
v 10.000000 10.000000 -3.750000
v 0.625000 10.000000 4.687500
v 6.250000 -10.000000 3.750000
v -0.781250 4.062500 10.000000
v 0.000000 5.625000 -10.000000
v -10.000000 -6.250000 0.000000
v -10.000000 -1.562500 5.781250
v -6.250000 -5.937500 10.000000
v -10.000000 10.000000 -10.000000
v -10.000000 -10.000000 -10.000000
v 10.000000 10.000000 10.000000
v 10.000000 -10.000000 10.000000
v -10.000000 -1.250000 -10.000000
v 10.000000 0.625000 -10.000000
v -1.250000 -10.000000 -10.000000
v 10.000000 1.250000 10.000000
v 10.000000 -10.000000 1.250000
v 1.250000 -10.000000 10.000000
v -0.312500 -10.000000 3.750000
v 10.000000 -1.250000 1.250000
v 0.312500 -6.875000 -10.000000
v -10.000000 0.312500 0.625000
v -10.000000 10.000000 -3.750000
v 10.000000 -4.375000 10.000000
v 10.000000 -10.000000 -4.375000
v 10.000000 -10.000000 -10.000000
v 4.375000 10.000000 10.000000
v -10.000000 -10.000000 10.000000
v 5.625000 -3.750000 -10.000000
v -10.000000 5.625000 6.250000
v -6.250000 1.250000 -10.000000
v -5.781250 -4.062500 -10.000000
v 10.000000 0.625000 -5.937500
v 10.000000 -6.250000 -5.000000
v 5.625000 -6.250000 10.000000
v -2.500000 -10.000000 -6.093750
v 5.937500 10.000000 6.250000
v -5.625000 10.000000 6.250000
v -5.312500 10.000000 0.781250
v -4.062500 10.000000 -5.781250
v 5.937500 -10.000000 -5.625000
v -1.406250 -3.750000 10.000000
v -10.000000 -5.625000 -5.312500
v 10.000000 -5.781250 4.531250
v 5.625000 10.000000 -6.250000
v 3.750000 10.000000 -0.625000
v -6.250000 -10.000000 5.625000
v -6.250000 -10.000000 -1.250000
v 5.312500 6.875000 10.000000
v -6.250000 3.750000 10.000000
v 10.000000 6.250000 -5.625000
v 10.000000 3.750000 6.250000
v 10.000000 4.375000 0.937500
v -5.312500 6.875000 -10.000000
v 5.937500 5.625000 -10.000000
v -10.000000 6.250000 -6.250000
v -10.000000 6.250000 0.625000
v -10.000000 0.625000 -5.625000
v -10.000000 -7.500000 5.625000
v 5.625000 0.000000 10.000000
v -18.728882 9.436340 1.706055
vt 0.3300 0.4952
vt 0.2639 0.3878
vt 0.3300 0.3571
vt 0.6636 0.7660
vt 0.5972 0.8894
vt 0.5921 0.6581
vt 0.1470 0.4952
vt 0.1267 0.3993
vt 0.5053 0.5810
vt 0.4797 0.5040
vt 0.4797 0.7198
vt 0.1623 0.1576
vt 0.2690 0.1576
vt 0.3300 0.2190
vt 0.1877 0.0042
vt 0.3300 0.0042
vt 0.0047 0.2804
vt 0.0047 0.0042
vt 0.0657 0.1116
vt 0.0047 0.4952
vt 0.3980 0.7815
vt 0.4057 0.6504
vt 0.3367 0.7198
vt 0.3367 0.5040
vt 0.4797 0.9973
vt 0.3367 0.9973
vt 0.4133 0.9202
vt 0.6636 0.9973
vt 0.5001 0.8894
vt 0.0657 0.2804
vt 0.6636 0.5040
vt 0.6631 0.1417
vt 0.5739 0.1071
vt 0.6631 0.0032
vt 0.6698 0.7812
vt 0.7312 0.6112
vt 0.7388 0.8507
vt 0.1900 0.6577
vt 0.0750 0.5959
vt 0.1466 0.5033
vt 0.4185 0.0955
vt 0.4287 0.0032
vt 0.8338 0.0964
vt 0.7421 0.0656
vt 0.8542 0.0041
vt 0.8236 0.2578
vt 0.7396 0.2117
vt 0.6019 0.3417
vt 0.5153 0.3571
vt 0.5204 0.2186
vt 0.4032 0.2648
vt 0.2693 0.8429
vt 0.1798 0.8506
vt 0.0750 0.7503
vt 0.8463 0.8816
vt 0.7721 0.9975
vt 0.2693 0.6037
vt 0.9204 0.1117
vt 0.9967 0.2194
vt 0.9254 0.2655
vt 0.6631 0.2802
vt 0.3306 0.7194
vt 0.8233 0.6576
vt 0.9103 0.7348
vt 0.9359 0.8893
vt 0.9973 0.7812
vt 0.9973 0.9975
vt 0.8642 0.5031
vt 0.9973 0.5031
vt 0.9359 0.6035
vt 0.9973 0.6421
vt 0.6698 0.5031
vt 0.7721 0.5031
vt 0.0034 0.7812
vt 0.0034 0.6422
vt 0.0034 0.5033
vt 0.1875 0.9973
vt 0.0954 0.9973
vt 0.0801 0.9201
vt 0.0034 0.9973
vt 0.3306 0.9973
vt 0.3369 0.2648
vt 0.3369 0.0032
vt 0.5306 0.4956
vt 0.4388 0.4956
vt 0.4083 0.4033
vt 0.3369 0.4956
vt 0.6631 0.4956
vt 0.6708 0.2194
vt 0.6708 0.0041
vt 0.8032 0.4961
vt 0.6708 0.4961
vt 0.7319 0.3885
vt 0.9967 0.4961
vt 0.8949 0.4961
vt 0.9356 0.4038
vt 0.8236 0.4038
vt 0.8642 0.9975
vt 0.5204 0.0032
vt 0.3306 0.5033
vt 0.6698 0.9975
vt 0.9967 0.0041
vn 0.0000 1.0000 0.0000
vn 0.0000 0.0000 1.0000
vn -1.0000 0.0000 0.0000
vn 0.0000 -1.0000 0.0000
vn 0.0000 0.0000 -1.0000
vn 1.0000 0.0000 0.0000
s off
f 35/1/1 50/2/1 34/3/1
f 23/4/2 64/5/2 38/6/2
f 24/7/1 45/8/1 50/2/1
f 38/6/2 30/9/2 24/10/2
f 38/6/2 3/11/2 30/9/2
f 50/2/1 28/12/1 12/13/1
f 50/2/1 12/13/1 26/14/1
f 12/13/1 27/15/1 21/16/1
f 8/17/1 37/18/1 56/19/1
f 56/19/1 37/18/1 27/15/1
f 19/20/1 8/17/1 45/8/1
f 3/11/2 40/21/2 41/22/2
f 41/22/2 22/23/2 19/24/2
f 9/25/2 18/26/2 63/27/2
f 63/27/2 18/26/2 22/23/2
f 4/28/2 9/25/2 14/29/2
f 64/5/2 14/29/2 3/11/2
f 14/29/2 63/27/2 40/21/2
f 30/9/2 41/22/2 24/10/2
f 57/30/1 56/19/1 28/12/1
f 41/22/2 19/24/2 24/10/2
f 3/11/2 41/22/2 30/9/2
f 19/20/1 45/8/1 24/7/1
f 24/7/1 50/2/1 35/1/1
f 38/6/2 24/10/2 35/31/2
f 23/4/2 38/6/2 35/31/2
f 45/8/1 28/12/1 50/2/1
f 50/2/1 26/14/1 34/3/1
f 28/12/1 27/15/1 12/13/1
f 8/17/1 56/19/1 57/30/1
f 56/19/1 27/15/1 28/12/1
f 8/17/1 57/30/1 45/8/1
f 57/30/1 28/12/1 45/8/1
f 40/21/2 22/23/2 41/22/2
f 9/25/2 63/27/2 14/29/2
f 63/27/2 22/23/2 40/21/2
f 4/28/2 14/29/2 64/5/2
f 64/5/2 3/11/2 38/6/2
f 4/28/2 64/5/2 23/4/2
f 14/29/2 40/21/2 3/11/2
f 12/13/1 21/16/1 26/14/1
f 33/32/3 53/33/3 21/34/3
f 9/35/4 54/36/4 49/37/4
f 51/38/5 44/39/5 27/40/5
f 53/33/3 43/41/3 34/42/3
f 15/43/6 68/44/6 8/45/6
f 31/46/6 16/47/6 15/43/6
f 61/48/3 62/49/3 29/50/3
f 29/50/3 42/51/3 43/41/3
f 59/52/5 13/53/5 51/38/5
f 51/38/5 69/54/5 44/39/5
f 49/37/4 48/55/4 32/56/4
f 17/57/5 51/38/5 27/40/5
f 52/58/6 15/43/6 8/45/6
f 22/59/6 67/60/6 52/58/6
f 67/60/6 31/46/6 15/43/6
f 25/61/3 61/48/3 53/33/3
f 6/62/5 59/52/5 17/57/5
f 55/63/4 11/64/4 48/55/4
f 47/65/4 2/66/4 5/67/4
f 1/68/4 20/69/4 46/70/4
f 46/70/4 36/71/4 2/66/4
f 4/72/4 10/73/4 54/36/4
f 10/73/4 1/68/4 55/63/4
f 69/54/5 25/74/5 33/75/5
f 44/39/5 33/75/5 21/76/5
f 2/77/5 36/78/5 58/79/5
f 58/79/5 20/80/5 25/74/5
f 5/81/5 2/77/5 13/53/5
f 42/51/3 23/82/3 35/83/3
f 1/84/3 10/85/3 60/86/3
f 10/85/3 4/87/3 60/86/3
f 60/86/3 4/87/3 23/82/3
f 20/88/3 1/84/3 61/48/3
f 16/47/6 6/89/6 37/90/6
f 7/91/6 5/92/6 39/93/6
f 39/93/6 5/92/6 6/89/6
f 18/94/6 32/95/6 65/96/6
f 32/95/6 7/91/6 66/97/6
f 65/96/6 66/97/6 67/60/6
f 18/94/6 65/96/6 67/60/6
f 31/46/6 39/93/6 16/47/6
f 15/43/6 16/47/6 68/44/6
f 13/53/5 58/79/5 69/54/5
f 55/63/4 46/70/4 11/64/4
f 48/55/4 47/65/4 7/98/4
f 13/53/5 69/54/5 51/38/5
f 53/33/3 34/42/3 26/99/3
f 62/49/3 42/51/3 29/50/3
f 29/50/3 43/41/3 53/33/3
f 44/39/5 21/76/5 27/40/5
f 54/36/4 55/63/4 49/37/4
f 47/65/4 5/67/4 7/98/4
f 17/57/5 27/40/5 37/100/5
f 53/33/3 26/99/3 21/34/3
f 67/60/6 15/43/6 52/58/6
f 25/61/3 53/33/3 33/32/3
f 61/48/3 29/50/3 53/33/3
f 59/52/5 51/38/5 17/57/5
f 55/63/4 48/55/4 49/37/4
f 48/55/4 7/98/4 32/56/4
f 11/64/4 47/65/4 48/55/4
f 11/64/4 2/66/4 47/65/4
f 1/68/4 46/70/4 55/63/4
f 20/69/4 36/71/4 46/70/4
f 46/70/4 2/66/4 11/64/4
f 10/73/4 55/63/4 54/36/4
f 69/54/5 33/75/5 44/39/5
f 2/77/5 58/79/5 13/53/5
f 36/78/5 20/80/5 58/79/5
f 58/79/5 25/74/5 69/54/5
f 5/81/5 13/53/5 59/52/5
f 42/51/3 35/83/3 43/41/3
f 43/41/3 35/83/3 34/42/3
f 1/84/3 60/86/3 62/49/3
f 60/86/3 23/82/3 42/51/3
f 1/84/3 62/49/3 61/48/3
f 16/47/6 37/90/6 68/44/6
f 7/91/6 39/93/6 66/97/6
f 39/93/6 6/89/6 16/47/6
f 32/95/6 66/97/6 65/96/6
f 66/97/6 31/46/6 67/60/6
f 18/94/6 67/60/6 22/59/6
f 66/97/6 39/93/6 31/46/6
f 68/44/6 37/90/6 8/45/6
f 20/88/3 61/48/3 25/61/3
f 60/86/3 42/51/3 62/49/3
f 5/81/5 59/52/5 6/62/5
f 4/72/4 54/36/4 9/35/4
f 49/37/4 32/56/4 18/101/4
f 9/35/4 49/37/4 18/101/4
f 6/62/5 17/57/5 37/100/5
f 52/58/6 8/45/6 19/102/6
f 22/59/6 52/58/6 19/102/6
