# Blender v2.82 (sub 7) OBJ File: ''
# www.blender.org
v -10.000000 9.981611 10.000002
v 10.000000 -9.999998 -10.000002
v -10.000000 10.000002 -9.999998
v 9.898499 10.000002 -9.999998
v 9.898499 9.999998 10.000002
v -9.973018 -9.999998 -10.000002
v -10.000000 -9.999998 -10.000002
v -10.000000 -9.869635 -10.000002
v -9.973018 -10.000002 9.999998
v -10.000000 -9.869638 9.999998
v -10.000000 -10.000002 10.070455
v -9.973018 9.999998 10.000002
v -10.000000 9.999998 10.070458
v 9.898499 -9.999998 -10.000002
v 10.000000 -9.869635 -10.000002
v -10.000000 9.981615 -9.999998
v -9.973018 10.000002 -9.999998
v 9.898499 -10.000002 9.999998
v 10.000000 -10.000002 10.070455
v 10.000000 -9.869638 9.999998
v 10.000000 9.981615 -9.999998
v 10.000000 10.000002 -9.999998
v 10.000000 9.999998 10.070458
v 10.000000 9.981611 10.000002
vt 0.330971 0.501390
vt 0.001835 0.998292
vt 0.001535 0.499591
vt 0.997531 0.002348
vt 0.670138 0.497917
vt 0.669595 0.003313
vt 0.662574 0.501723
vt 0.334537 0.997926
vt 0.333937 0.502023
vt 0.662194 0.003253
vt 0.333758 0.498556
vt 0.333258 0.002453
vt 0.330722 0.002264
vt 0.001386 0.497268
vt 0.002086 0.001865
vt 0.669690 0.501899
vt 0.998127 0.998001
vt 0.669790 0.998001
vt 0.329772 0.997993
vt 0.998475 0.497951
vt 0.662474 0.998225
vt 0.662394 0.498156
vt 0.330522 0.498467
vt 0.998426 0.501699
vn 1.0000 -0.0000 0.0000
vn 0.0000 -0.0000 1.0000
vn -1.0000 0.0000 0.0000
vn 0.0000 0.0000 -1.0000
vn 0.0000 1.0000 0.0000
vn 0.0000 -1.0000 -0.0000
s 1
f 6/1/1 12/2/1 9/3/1
f 2/4/2 3/5/2 7/6/2
f 18/7/3 4/8/3 14/9/3
f 11/10/4 23/11/4 19/12/4
f 10/13/5 15/14/5 8/15/5
f 24/16/6 16/17/6 21/18/6
f 6/1/1 17/19/1 12/2/1
f 2/4/2 22/20/2 3/5/2
f 18/7/3 5/21/3 4/8/3
f 11/10/4 13/22/4 23/11/4
f 10/13/5 20/23/5 15/14/5
f 24/16/6 1/24/6 16/17/6
