####
#
# OBJ File Generated by Meshlab
#
####
# Object cube.obj
#
# Vertices: 8
# Faces: 12
#
####

vn -1.570796 -1.570796 1.570796
v -1.000000 -1.000000 1.000000
vn -1.570796 1.570796 1.570796
v -1.000000 1.000000 1.000000
vn -1.570796 -1.570796 -1.570796
v -1.000000 -1.000000 -1.000000
vn -1.570796 1.570796 -1.570796
v -1.000000 1.000000 -1.000000
vn 1.570796 -1.570796 1.570796
v 1.000000 -1.000000 1.000000
vn 1.570796 1.570796 1.570796
v 1.000000 1.000000 1.000000
vn 1.570796 -1.570796 -1.570796
v 1.000000 -1.000000 -1.000000
vn 1.570796 1.570796 -1.570796
v 1.000000 1.000000 -1.000000
# 8 vertices, 0 vertices normals


vt 0.500000 0.500000
f 4/1/4 1/1/1 2/1/2
f 8/1/8 3/1/3 4/1/4
f 6/1/6 7/1/7 8/1/8
f 2/1/2 5/1/5 6/1/6
f 3/1/3 5/1/5 1/1/1
f 8/1/8 2/1/2 6/1/6
f 4/1/4 3/1/3 1/1/1
f 8/1/8 7/1/7 3/1/3
f 6/1/6 5/1/5 7/1/7
f 2/1/2 1/1/1 5/1/5
f 3/1/3 7/1/7 5/1/5
f 8/1/8 4/1/4 2/1/2
# 12 faces, 1 coords texture

# End of File
